# xmcd
# 
# Track frame offsets:
#     150
#     15829
#     31891
#     47649
#     62497
#     76336
#     91932
#     105210
#     119446
#     137366
#     154478
#     172046
#     184720
#     198953
#     214700
# 
# Disc length: 3094
# 
# Revision: 1
# Processed by: cddbd v1.5.2PL0 Copyright (c) Steve Scherf et al.
# Submitted via: fre:ac v1.0.27
# 
DISCID=b40c140f
DTITLE=Gord Bamford - Tin Roof
DYEAR=2016
DGENRE=Country
TTITLE0=Tin Roof
TTITLE1=Heard You in a Song
TTITLE2=Don't Let Her Be Gone
TTITLE3=The Country I Grew Up In
TTITLE4=Firebird
TTITLE5=Fall In Love If You Want To
TTITLE6=Breakfast Beer
TTITLE7=Where The Wild Things Grow
TTITLE8=When You Look At Me
TTITLE9=Old
TTITLE10=Come Kiss Me Boots
TTITLE11=It's A Good Thing
TTITLE12=When I Go
TTITLE13=You Wear It Well
TTITLE14=Apples
EXTD=
EXTT0=
EXTT1=
EXTT2=
EXTT3=
EXTT4=
EXTT5=
EXTT6=
EXTT7=
EXTT8=
EXTT9=
EXTT10=
EXTT11=
EXTT12=
EXTT13=
EXTT14=
PLAYORDER=
